<svg xmlns="http://www.w3.org/2000/svg" width="48" height="48" viewBox="0 0 48 48"><g transform="translate(-919.821 -2334.01) scale(.96875)"><path fill="none" stroke="#000" stroke-linecap="round" stroke-linejoin="round" stroke-width="1.548" d="m 973.87053,2441.1077 c -0.4118,-0.9897 -0.4118,-2.2241 0,-3.2139 0.5824,-1.3997 1.8223,-2.6341 3.2283,-3.2139 0.9942,-0.4099 2.2342,-0.4099 3.2283,0 1.406,0.5798 3.2284,3.2139 3.2284,3.2139 0,0 1.8223,-2.6341 3.2283,-3.2139 0.9942,-0.4099 2.2341,-0.4099 3.2283,0 1.406,0.5798 2.6459,1.8142 3.2283,3.2139 0.4118,0.9898 0.4118,2.2242 0,3.2139 -1.7471,4.1992 -9.6817,11.2499 -9.6817,11.2499 0,0 -7.941,-7.0507 -9.6882,-11.2499 z"/><circle cx="983.555" cy="2443.362" r="14.71" fill="none" stroke="#000" stroke-linecap="round" stroke-linejoin="round" stroke-width="1.548"/><path fill="none" stroke="#000" stroke-linecap="round" stroke-linejoin="round" stroke-width="1.548" d="m 969.5501,2438.7611 a 14.710123,14.710124 0 0 1 -17.06226,-6.2037 14.710123,14.710124 0 0 1 1.95742,-18.0493 14.710123,14.710124 0 0 1 17.99551,-2.4017 14.710123,14.710124 0 0 1 6.62242,16.9041"/><g transform="translate(-660.322 610.307)"><path fill="none" stroke="#000" stroke-linecap="round" stroke-linejoin="round" stroke-width="1.548" d="M1616.0695 1808.8727l18.456 0 0 11.2041-18.456 0zM1634.5255 1812.1114l-18.456 0M1618.3747 1815.5952l6.9298 0M1628.7083 1815.377l2.7169 0M1631.4358 1817.8254l0-2.2408"/><path fill="none" stroke="#000" stroke-linecap="round" stroke-linejoin="round" stroke-width="1.548" d="m 1628.6977,1815.5952 0,2.2408 2.3052,0"/></g></g></svg>