<svg xmlns="http://www.w3.org/2000/svg" xmlns:xlink="http://www.w3.org/1999/xlink" width="375" viewBox="0 0 375 375" height="375" version="1.0"><defs><clipPath id="a"><path d="M 56.0625 23.5625 L 297.917969 23.5625 L 297.917969 265.054688 L 56.0625 265.054688 Z M 56.0625 23.5625"/></clipPath><clipPath id="b"><path d="M 283.90625 87.835938 C 278.136719 95.46875 272.269531 102.996094 266.339844 110.417969 C 270.363281 120.953125 272.566406 132.378906 272.566406 144.308594 C 272.566406 196.929688 229.691406 239.742188 176.992188 239.742188 C 124.289062 239.742188 81.414062 196.929688 81.414062 144.308594 C 81.414062 91.6875 124.289062 48.875 176.992188 48.875 C 205.332031 48.875 230.835938 61.257812 248.351562 80.890625 C 254.351562 74.640625 260.277344 68.597656 266.152344 62.734375 C 264.964844 61.445312 263.746094 60.171875 262.5 58.925781 C 251.398438 47.84375 238.464844 39.136719 224.066406 33.054688 C 209.148438 26.753906 193.308594 23.5625 176.992188 23.5625 C 160.671875 23.5625 144.832031 26.753906 129.914062 33.054688 C 115.511719 39.136719 102.582031 47.84375 91.480469 58.925781 C 80.378906 70.011719 71.660156 82.925781 65.570312 97.304688 C 59.261719 112.199219 56.0625 128.011719 56.0625 144.308594 C 56.0625 160.601562 59.261719 176.417969 65.570312 191.3125 C 71.660156 205.691406 80.378906 218.605469 91.480469 229.6875 C 102.582031 240.773438 115.511719 249.480469 129.914062 255.558594 C 144.832031 261.859375 160.671875 265.054688 176.992188 265.054688 C 193.308594 265.054688 209.148438 261.859375 224.066406 255.558594 C 238.464844 249.480469 251.398438 240.773438 262.5 229.6875 C 273.601562 218.605469 282.320312 205.691406 288.410156 191.3125 C 294.71875 176.417969 297.917969 160.601562 297.917969 144.308594 C 297.917969 128.011719 294.71875 112.199219 288.410156 97.304688 C 287.039062 94.074219 285.539062 90.917969 283.90625 87.835938 Z M 283.90625 87.835938"/></clipPath><clipPath id="c"><path d="M 283.90625 87.835938 C 278.136719 95.46875 272.269531 102.996094 266.339844 110.417969 C 270.363281 120.953125 272.566406 132.378906 272.566406 144.308594 C 272.566406 196.929688 229.691406 239.742188 176.992188 239.742188 C 124.289062 239.742188 81.414062 196.929688 81.414062 144.308594 C 81.414062 91.6875 124.289062 48.875 176.992188 48.875 C 205.332031 48.875 230.835938 61.257812 248.351562 80.890625 C 254.351562 74.640625 260.277344 68.597656 266.152344 62.734375 C 264.964844 61.445312 263.746094 60.171875 262.5 58.925781 C 251.398438 47.84375 238.464844 39.136719 224.066406 33.054688 C 209.148438 26.753906 193.308594 23.5625 176.992188 23.5625 C 160.671875 23.5625 144.832031 26.753906 129.914062 33.054688 C 115.511719 39.136719 102.582031 47.84375 91.480469 58.925781 C 80.378906 70.011719 71.660156 82.925781 65.570312 97.304688 C 59.261719 112.199219 56.0625 128.011719 56.0625 144.308594 C 56.0625 160.601562 59.261719 176.417969 65.570312 191.3125 C 71.660156 205.691406 80.378906 218.605469 91.480469 229.6875 C 102.582031 240.773438 115.511719 249.480469 129.914062 255.558594 C 144.832031 261.859375 160.671875 265.054688 176.992188 265.054688 C 193.308594 265.054688 209.148438 261.859375 224.066406 255.558594 C 238.464844 249.480469 251.398438 240.773438 262.5 229.6875 C 273.601562 218.605469 282.320312 205.691406 288.410156 191.3125 C 294.71875 176.417969 297.917969 160.601562 297.917969 144.308594 C 297.917969 128.011719 294.71875 112.199219 288.410156 97.304688 C 287.039062 94.074219 285.539062 90.917969 283.90625 87.835938"/></clipPath><clipPath id="e"><path d="M 108 23.558594 L 319.261719 23.558594 L 319.261719 203 L 108 203 Z M 108 23.558594"/></clipPath><linearGradient x1="0" gradientTransform="matrix(241.85727 0 0 241.49341 56.062 144.308)" xmlns:xlink="http://www.w3.org/1999/xlink" y1="0" x2="1" gradientUnits="userSpaceOnUse" y2="0" xlink:type="simple" xlink:actuate="onLoad" id="d" xlink:show="other"><stop stop-color="#3AAA35" offset="0"/><stop stop-color="#3AAA35" offset=".016"/><stop stop-color="#39A935" offset=".023"/><stop stop-color="#39A935" offset=".031"/><stop stop-color="#38A835" offset=".039"/><stop stop-color="#38A835" offset=".047"/><stop stop-color="#38A735" offset=".055"/><stop stop-color="#37A735" offset=".063"/><stop stop-color="#37A635" offset=".066"/><stop stop-color="#36A535" offset=".07"/><stop stop-color="#36A535" offset=".078"/><stop stop-color="#36A435" offset=".086"/><stop stop-color="#35A435" offset=".094"/><stop stop-color="#35A335" offset=".102"/><stop stop-color="#34A335" offset=".109"/><stop stop-color="#33A235" offset=".125"/><stop stop-color="#33A135" offset=".133"/><stop stop-color="#33A135" offset=".141"/><stop stop-color="#32A035" offset=".145"/><stop stop-color="#32A035" offset=".148"/><stop stop-color="#31A035" offset=".156"/><stop stop-color="#319F35" offset=".164"/><stop stop-color="#309F35" offset=".172"/><stop stop-color="#309F35" offset=".18"/><stop stop-color="#2F9E35" offset=".188"/><stop stop-color="#2F9E35" offset=".191"/><stop stop-color="#2F9D35" offset=".195"/><stop stop-color="#2E9D35" offset=".203"/><stop stop-color="#2E9C35" offset=".219"/><stop stop-color="#2D9B35" offset=".227"/><stop stop-color="#2D9B35" offset=".23"/><stop stop-color="#2D9A35" offset=".234"/><stop stop-color="#2C9A35" offset=".242"/><stop stop-color="#2C9935" offset=".25"/><stop stop-color="#2C9935" offset=".258"/><stop stop-color="#2B9934" offset=".266"/><stop stop-color="#2B9834" offset=".27"/><stop stop-color="#2A9834" offset=".273"/><stop stop-color="#2A9734" offset=".281"/><stop stop-color="#2A9734" offset=".289"/><stop stop-color="#299634" offset=".297"/><stop stop-color="#299534" offset=".313"/><stop stop-color="#289434" offset=".316"/><stop stop-color="#289434" offset=".32"/><stop stop-color="#289434" offset=".328"/><stop stop-color="#279334" offset=".336"/><stop stop-color="#279334" offset=".344"/><stop stop-color="#269334" offset=".352"/><stop stop-color="#259234" offset=".355"/><stop stop-color="#259234" offset=".359"/><stop stop-color="#259234" offset=".367"/><stop stop-color="#249134" offset=".375"/><stop stop-color="#249134" offset=".383"/><stop stop-color="#249034" offset=".391"/><stop stop-color="#239034" offset=".395"/><stop stop-color="#238F34" offset=".398"/><stop stop-color="#238F34" offset=".406"/><stop stop-color="#228F34" offset=".422"/><stop stop-color="#218E34" offset=".43"/><stop stop-color="#218D34" offset=".438"/><stop stop-color="#208C34" offset=".441"/><stop stop-color="#208C34" offset=".445"/><stop stop-color="#208B34" offset=".453"/><stop stop-color="#1F8A34" offset=".469"/><stop stop-color="#1F8A34" offset=".477"/><stop stop-color="#1F8934" offset=".48"/><stop stop-color="#1E8934" offset=".484"/><stop stop-color="#1E8934" offset=".492"/><stop stop-color="#1E8834" offset=".5"/><stop stop-color="#1D8734" offset=".516"/><stop stop-color="#1C8734" offset=".523"/><stop stop-color="#1C8634" offset=".531"/><stop stop-color="#1B8534" offset=".547"/><stop stop-color="#1B8534" offset=".555"/><stop stop-color="#1A8534" offset=".563"/><stop stop-color="#198434" offset=".566"/><stop stop-color="#198334" offset=".57"/><stop stop-color="#198334" offset=".578"/><stop stop-color="#188334" offset=".586"/><stop stop-color="#188234" offset=".594"/><stop stop-color="#178234" offset=".602"/><stop stop-color="#178134" offset=".609"/><stop stop-color="#168034" offset=".625"/><stop stop-color="#168034" offset=".633"/><stop stop-color="#157F34" offset=".641"/><stop stop-color="#157E34" offset=".645"/><stop stop-color="#157E34" offset=".648"/><stop stop-color="#147E34" offset=".656"/><stop stop-color="#147D34" offset=".672"/><stop stop-color="#137C34" offset=".68"/><stop stop-color="#137C34" offset=".688"/><stop stop-color="#127B34" offset=".691"/><stop stop-color="#127B34" offset=".695"/><stop stop-color="#127A34" offset=".703"/><stop stop-color="#117A34" offset=".719"/><stop stop-color="#117934" offset=".727"/><stop stop-color="#107934" offset=".73"/><stop stop-color="#107834" offset=".734"/><stop stop-color="#107834" offset=".742"/><stop stop-color="#0F7834" offset=".75"/><stop stop-color="#0F7734" offset=".758"/><stop stop-color="#0E7733" offset=".766"/><stop stop-color="#0E7633" offset=".77"/><stop stop-color="#0D7633" offset=".773"/><stop stop-color="#0D7633" offset=".781"/><stop stop-color="#0C7533" offset=".789"/><stop stop-color="#0C7533" offset=".797"/><stop stop-color="#0C7433" offset=".813"/><stop stop-color="#0B7333" offset=".816"/><stop stop-color="#0B7233" offset=".82"/><stop stop-color="#0A7233" offset=".828"/><stop stop-color="#0A7133" offset=".836"/><stop stop-color="#097133" offset=".844"/><stop stop-color="#097033" offset=".852"/><stop stop-color="#087033" offset=".855"/><stop stop-color="#087033" offset=".859"/><stop stop-color="#086F33" offset=".867"/><stop stop-color="#076F33" offset=".875"/><stop stop-color="#076E33" offset=".883"/><stop stop-color="#076E33" offset=".891"/><stop stop-color="#066D33" offset=".895"/><stop stop-color="#066D33" offset=".898"/><stop stop-color="#066D33" offset=".906"/><stop stop-color="#066C33" offset=".922"/><stop stop-color="#056C33" offset=".93"/><stop stop-color="#046B33" offset=".938"/><stop stop-color="#046B33" offset=".941"/><stop stop-color="#036A33" offset=".945"/><stop stop-color="#036A33" offset=".953"/><stop stop-color="#036933" offset=".961"/><stop stop-color="#026933" offset=".969"/><stop stop-color="#026833" offset=".977"/><stop stop-color="#026833" offset=".98"/><stop stop-color="#016733" offset=".984"/><stop stop-color="#016733" offset=".992"/><stop stop-color="#063" offset="1"/></linearGradient></defs><g clip-path="url(#a)"><g clip-path="url(#b)"><g clip-path="url(#c)"><path fill="url(#d)" d="M 56.0625 23.5625 L 56.0625 265.054688 L 297.917969 265.054688 L 297.917969 23.5625 Z M 56.0625 23.5625"/></g></g></g><g clip-path="url(#e)"><path fill="#008D36" d="M 308.925781 32.601562 C 261.226562 75.519531 217.777344 123.75 176.625 172.902344 C 155.25 149.882812 133.046875 126.953125 108.285156 107.5625 C 127.367188 141.464844 152.171875 172.128906 176.523438 202.378906 C 227.613281 146.503906 279.003906 87.863281 319.214844 23.5625 C 315.734375 26.515625 312.304688 29.527344 308.925781 32.601562 C 305.535156 35.648438 312.304688 29.546875 308.925781 32.601562"/></g><g fill="#008D36"><g><g><path d="M 11.25 -4.359375 C 11.25 -2.941406 10.738281 -1.820312 9.71875 -1 C 8.695312 -0.1875 7.273438 0.21875 5.453125 0.21875 C 3.773438 0.21875 2.296875 -0.0976562 1.015625 -0.734375 L 1.015625 -3.828125 C 2.066406 -3.347656 2.957031 -3.007812 3.6875 -2.8125 C 4.425781 -2.625 5.101562 -2.53125 5.71875 -2.53125 C 6.445312 -2.53125 7.003906 -2.671875 7.390625 -2.953125 C 7.785156 -3.234375 7.984375 -3.648438 7.984375 -4.203125 C 7.984375 -4.503906 7.894531 -4.773438 7.71875 -5.015625 C 7.550781 -5.253906 7.300781 -5.484375 6.96875 -5.703125 C 6.632812 -5.929688 5.957031 -6.289062 4.9375 -6.78125 C 3.96875 -7.226562 3.242188 -7.660156 2.765625 -8.078125 C 2.285156 -8.492188 1.898438 -8.976562 1.609375 -9.53125 C 1.328125 -10.082031 1.1875 -10.726562 1.1875 -11.46875 C 1.1875 -12.851562 1.65625 -13.941406 2.59375 -14.734375 C 3.539062 -15.535156 4.847656 -15.9375 6.515625 -15.9375 C 7.328125 -15.9375 8.101562 -15.835938 8.84375 -15.640625 C 9.582031 -15.441406 10.359375 -15.171875 11.171875 -14.828125 L 10.09375 -12.234375 C 9.257812 -12.578125 8.566406 -12.816406 8.015625 -12.953125 C 7.472656 -13.085938 6.9375 -13.15625 6.40625 -13.15625 C 5.769531 -13.15625 5.285156 -13.007812 4.953125 -12.71875 C 4.617188 -12.425781 4.453125 -12.039062 4.453125 -11.5625 C 4.453125 -11.269531 4.519531 -11.015625 4.65625 -10.796875 C 4.789062 -10.578125 5.003906 -10.363281 5.296875 -10.15625 C 5.597656 -9.957031 6.300781 -9.59375 7.40625 -9.0625 C 8.875 -8.363281 9.878906 -7.660156 10.421875 -6.953125 C 10.972656 -6.242188 11.25 -5.378906 11.25 -4.359375 Z M 11.25 -4.359375" transform="translate(116.66 310.285)"/></g></g></g><g fill="#008D36"><g><g><path d="M 10.234375 0 L 9.78125 -1.53125 L 9.609375 -1.53125 C 9.265625 -0.976562 8.769531 -0.546875 8.125 -0.234375 C 7.476562 0.0664062 6.742188 0.21875 5.921875 0.21875 C 4.503906 0.21875 3.4375 -0.15625 2.71875 -0.90625 C 2.007812 -1.664062 1.65625 -2.753906 1.65625 -4.171875 L 1.65625 -12.015625 L 4.9375 -12.015625 L 4.9375 -5 C 4.9375 -4.132812 5.085938 -3.484375 5.390625 -3.046875 C 5.703125 -2.609375 6.191406 -2.390625 6.859375 -2.390625 C 7.773438 -2.390625 8.4375 -2.695312 8.84375 -3.3125 C 9.257812 -3.925781 9.46875 -4.941406 9.46875 -6.359375 L 9.46875 -12.015625 L 12.734375 -12.015625 L 12.734375 0 Z M 10.234375 0" transform="translate(128.776 310.285)"/></g></g></g><g fill="#008D36"><g><g><path d="M 6.59375 0.21875 C 2.851562 0.21875 0.984375 -1.832031 0.984375 -5.9375 C 0.984375 -7.976562 1.492188 -9.535156 2.515625 -10.609375 C 3.535156 -11.691406 4.992188 -12.234375 6.890625 -12.234375 C 8.273438 -12.234375 9.519531 -11.960938 10.625 -11.421875 L 9.65625 -8.890625 C 9.144531 -9.097656 8.664062 -9.265625 8.21875 -9.390625 C 7.769531 -9.523438 7.328125 -9.59375 6.890625 -9.59375 C 5.179688 -9.59375 4.328125 -8.382812 4.328125 -5.96875 C 4.328125 -3.613281 5.179688 -2.4375 6.890625 -2.4375 C 7.515625 -2.4375 8.09375 -2.519531 8.625 -2.6875 C 9.164062 -2.851562 9.707031 -3.117188 10.25 -3.484375 L 10.25 -0.671875 C 9.71875 -0.335938 9.179688 -0.109375 8.640625 0.015625 C 8.097656 0.148438 7.414062 0.21875 6.59375 0.21875 Z M 6.59375 0.21875" transform="translate(143.232 310.285)"/></g></g></g><g fill="#008D36"><g><g><path d="M 6.59375 0.21875 C 2.851562 0.21875 0.984375 -1.832031 0.984375 -5.9375 C 0.984375 -7.976562 1.492188 -9.535156 2.515625 -10.609375 C 3.535156 -11.691406 4.992188 -12.234375 6.890625 -12.234375 C 8.273438 -12.234375 9.519531 -11.960938 10.625 -11.421875 L 9.65625 -8.890625 C 9.144531 -9.097656 8.664062 -9.265625 8.21875 -9.390625 C 7.769531 -9.523438 7.328125 -9.59375 6.890625 -9.59375 C 5.179688 -9.59375 4.328125 -8.382812 4.328125 -5.96875 C 4.328125 -3.613281 5.179688 -2.4375 6.890625 -2.4375 C 7.515625 -2.4375 8.09375 -2.519531 8.625 -2.6875 C 9.164062 -2.851562 9.707031 -3.117188 10.25 -3.484375 L 10.25 -0.671875 C 9.71875 -0.335938 9.179688 -0.109375 8.640625 0.015625 C 8.097656 0.148438 7.414062 0.21875 6.59375 0.21875 Z M 6.59375 0.21875" transform="translate(154.542 310.285)"/></g></g></g><g fill="#008D36"><g><g><path d="M 6.6875 -9.90625 C 6 -9.90625 5.457031 -9.679688 5.0625 -9.234375 C 4.664062 -8.796875 4.441406 -8.175781 4.390625 -7.375 L 8.984375 -7.375 C 8.960938 -8.175781 8.75 -8.796875 8.34375 -9.234375 C 7.9375 -9.679688 7.382812 -9.90625 6.6875 -9.90625 Z M 7.15625 0.21875 C 5.21875 0.21875 3.703125 -0.3125 2.609375 -1.375 C 1.523438 -2.445312 0.984375 -3.960938 0.984375 -5.921875 C 0.984375 -7.929688 1.484375 -9.484375 2.484375 -10.578125 C 3.492188 -11.679688 4.890625 -12.234375 6.671875 -12.234375 C 8.367188 -12.234375 9.6875 -11.75 10.625 -10.78125 C 11.570312 -9.8125 12.046875 -8.476562 12.046875 -6.78125 L 12.046875 -5.1875 L 4.3125 -5.1875 C 4.34375 -4.257812 4.613281 -3.53125 5.125 -3 C 5.644531 -2.476562 6.375 -2.21875 7.3125 -2.21875 C 8.03125 -2.21875 8.710938 -2.289062 9.359375 -2.4375 C 10.003906 -2.59375 10.675781 -2.835938 11.375 -3.171875 L 11.375 -0.640625 C 10.800781 -0.347656 10.1875 -0.132812 9.53125 0 C 8.882812 0.144531 8.09375 0.21875 7.15625 0.21875 Z M 7.15625 0.21875" transform="translate(165.851 310.285)"/></g></g></g><g fill="#008D36"><g><g><path d="M 10.09375 -3.5625 C 10.09375 -2.332031 9.664062 -1.394531 8.8125 -0.75 C 7.957031 -0.101562 6.675781 0.21875 4.96875 0.21875 C 4.09375 0.21875 3.347656 0.15625 2.734375 0.03125 C 2.117188 -0.0820312 1.546875 -0.253906 1.015625 -0.484375 L 1.015625 -3.1875 C 1.617188 -2.90625 2.300781 -2.664062 3.0625 -2.46875 C 3.832031 -2.28125 4.503906 -2.1875 5.078125 -2.1875 C 6.265625 -2.1875 6.859375 -2.53125 6.859375 -3.21875 C 6.859375 -3.46875 6.78125 -3.671875 6.625 -3.828125 C 6.46875 -3.992188 6.195312 -4.175781 5.8125 -4.375 C 5.425781 -4.582031 4.910156 -4.828125 4.265625 -5.109375 C 3.335938 -5.492188 2.65625 -5.847656 2.21875 -6.171875 C 1.789062 -6.503906 1.476562 -6.882812 1.28125 -7.3125 C 1.082031 -7.738281 0.984375 -8.265625 0.984375 -8.890625 C 0.984375 -9.953125 1.394531 -10.773438 2.21875 -11.359375 C 3.050781 -11.941406 4.226562 -12.234375 5.75 -12.234375 C 7.195312 -12.234375 8.601562 -11.921875 9.96875 -11.296875 L 8.984375 -8.921875 C 8.378906 -9.179688 7.816406 -9.394531 7.296875 -9.5625 C 6.773438 -9.726562 6.238281 -9.8125 5.6875 -9.8125 C 4.726562 -9.8125 4.25 -9.550781 4.25 -9.03125 C 4.25 -8.726562 4.398438 -8.46875 4.703125 -8.25 C 5.015625 -8.039062 5.695312 -7.726562 6.75 -7.3125 C 7.695312 -6.925781 8.382812 -6.566406 8.8125 -6.234375 C 9.25 -5.910156 9.570312 -5.53125 9.78125 -5.09375 C 9.988281 -4.664062 10.09375 -4.15625 10.09375 -3.5625 Z M 10.09375 -3.5625" transform="translate(178.847 310.285)"/></g></g></g><g fill="#008D36"><g><g><path d="M 10.09375 -3.5625 C 10.09375 -2.332031 9.664062 -1.394531 8.8125 -0.75 C 7.957031 -0.101562 6.675781 0.21875 4.96875 0.21875 C 4.09375 0.21875 3.347656 0.15625 2.734375 0.03125 C 2.117188 -0.0820312 1.546875 -0.253906 1.015625 -0.484375 L 1.015625 -3.1875 C 1.617188 -2.90625 2.300781 -2.664062 3.0625 -2.46875 C 3.832031 -2.28125 4.503906 -2.1875 5.078125 -2.1875 C 6.265625 -2.1875 6.859375 -2.53125 6.859375 -3.21875 C 6.859375 -3.46875 6.78125 -3.671875 6.625 -3.828125 C 6.46875 -3.992188 6.195312 -4.175781 5.8125 -4.375 C 5.425781 -4.582031 4.910156 -4.828125 4.265625 -5.109375 C 3.335938 -5.492188 2.65625 -5.847656 2.21875 -6.171875 C 1.789062 -6.503906 1.476562 -6.882812 1.28125 -7.3125 C 1.082031 -7.738281 0.984375 -8.265625 0.984375 -8.890625 C 0.984375 -9.953125 1.394531 -10.773438 2.21875 -11.359375 C 3.050781 -11.941406 4.226562 -12.234375 5.75 -12.234375 C 7.195312 -12.234375 8.601562 -11.921875 9.96875 -11.296875 L 8.984375 -8.921875 C 8.378906 -9.179688 7.816406 -9.394531 7.296875 -9.5625 C 6.773438 -9.726562 6.238281 -9.8125 5.6875 -9.8125 C 4.726562 -9.8125 4.25 -9.550781 4.25 -9.03125 C 4.25 -8.726562 4.398438 -8.46875 4.703125 -8.25 C 5.015625 -8.039062 5.695312 -7.726562 6.75 -7.3125 C 7.695312 -6.925781 8.382812 -6.566406 8.8125 -6.234375 C 9.25 -5.910156 9.570312 -5.53125 9.78125 -5.09375 C 9.988281 -4.664062 10.09375 -4.15625 10.09375 -3.5625 Z M 10.09375 -3.5625" transform="translate(189.78 310.285)"/></g></g></g><g fill="#008D36"><g><g><path d="M 8.359375 -9.546875 L 5.515625 -9.546875 L 5.515625 0 L 2.25 0 L 2.25 -9.546875 L 0.4375 -9.546875 L 0.4375 -11.125 L 2.25 -12.015625 L 2.25 -12.890625 C 2.25 -14.253906 2.582031 -15.25 3.25 -15.875 C 3.925781 -16.507812 5.003906 -16.828125 6.484375 -16.828125 C 7.617188 -16.828125 8.625 -16.660156 9.5 -16.328125 L 8.671875 -13.921875 C 8.015625 -14.128906 7.40625 -14.234375 6.84375 -14.234375 C 6.375 -14.234375 6.035156 -14.09375 5.828125 -13.8125 C 5.617188 -13.539062 5.515625 -13.191406 5.515625 -12.765625 L 5.515625 -12.015625 L 8.359375 -12.015625 Z M 8.359375 -9.546875" transform="translate(200.714 310.285)"/></g></g></g><g fill="#008D36"><g><g><path d="M 10.234375 0 L 9.78125 -1.53125 L 9.609375 -1.53125 C 9.265625 -0.976562 8.769531 -0.546875 8.125 -0.234375 C 7.476562 0.0664062 6.742188 0.21875 5.921875 0.21875 C 4.503906 0.21875 3.4375 -0.15625 2.71875 -0.90625 C 2.007812 -1.664062 1.65625 -2.753906 1.65625 -4.171875 L 1.65625 -12.015625 L 4.9375 -12.015625 L 4.9375 -5 C 4.9375 -4.132812 5.085938 -3.484375 5.390625 -3.046875 C 5.703125 -2.609375 6.191406 -2.390625 6.859375 -2.390625 C 7.773438 -2.390625 8.4375 -2.695312 8.84375 -3.3125 C 9.257812 -3.925781 9.46875 -4.941406 9.46875 -6.359375 L 9.46875 -12.015625 L 12.734375 -12.015625 L 12.734375 0 Z M 10.234375 0" transform="translate(209.231 310.285)"/></g></g></g><g fill="#008D36"><g><g><path d="M 5 0 L 1.71875 0 L 1.71875 -16.71875 L 5 -16.71875 Z M 5 0" transform="translate(223.688 310.285)"/></g></g></g><g fill="#008D36"><g><g><path d="M 5 0 L 1.71875 0 L 1.71875 -16.71875 L 5 -16.71875 Z M 5 0" transform="translate(230.4 310.285)"/></g></g></g><g fill="#008D36"><g><g><path d="M 0 -12.015625 L 3.59375 -12.015625 L 5.859375 -5.25 C 6.046875 -4.664062 6.175781 -3.972656 6.25 -3.171875 L 6.3125 -3.171875 C 6.394531 -3.910156 6.550781 -4.601562 6.78125 -5.25 L 9 -12.015625 L 12.515625 -12.015625 L 7.4375 1.53125 C 6.96875 2.789062 6.300781 3.726562 5.4375 4.34375 C 4.570312 4.96875 3.566406 5.28125 2.421875 5.28125 C 1.847656 5.28125 1.289062 5.222656 0.75 5.109375 L 0.75 2.5 C 1.144531 2.59375 1.578125 2.640625 2.046875 2.640625 C 2.617188 2.640625 3.125 2.460938 3.5625 2.109375 C 4 1.753906 4.335938 1.21875 4.578125 0.5 L 4.765625 -0.09375 Z M 0 -12.015625" transform="translate(237.113 310.285)"/></g></g></g><g fill="#008D36"><g><g><path d="M 8.640625 -13.15625 C 7.390625 -13.15625 6.421875 -12.679688 5.734375 -11.734375 C 5.046875 -10.796875 4.703125 -9.488281 4.703125 -7.8125 C 4.703125 -4.3125 6.015625 -2.5625 8.640625 -2.5625 C 9.742188 -2.5625 11.082031 -2.835938 12.65625 -3.390625 L 12.65625 -0.59375 C 11.363281 -0.0507812 9.925781 0.21875 8.34375 0.21875 C 6.050781 0.21875 4.300781 -0.472656 3.09375 -1.859375 C 1.882812 -3.242188 1.28125 -5.234375 1.28125 -7.828125 C 1.28125 -9.460938 1.578125 -10.894531 2.171875 -12.125 C 2.765625 -13.351562 3.617188 -14.296875 4.734375 -14.953125 C 5.847656 -15.609375 7.148438 -15.9375 8.640625 -15.9375 C 10.171875 -15.9375 11.707031 -15.566406 13.25 -14.828125 L 12.171875 -12.125 C 11.585938 -12.394531 10.992188 -12.632812 10.390625 -12.84375 C 9.796875 -13.050781 9.210938 -13.15625 8.640625 -13.15625 Z M 8.640625 -13.15625" transform="translate(139.77 341.035)"/></g></g></g><g fill="#008D36"><g><g><path d="M 8.421875 -12.234375 C 8.867188 -12.234375 9.238281 -12.203125 9.53125 -12.140625 L 9.28125 -9.0625 C 9.019531 -9.132812 8.695312 -9.171875 8.3125 -9.171875 C 7.269531 -9.171875 6.457031 -8.898438 5.875 -8.359375 C 5.289062 -7.828125 5 -7.078125 5 -6.109375 L 5 0 L 1.71875 0 L 1.71875 -12.015625 L 4.203125 -12.015625 L 4.6875 -9.984375 L 4.84375 -9.984375 C 5.21875 -10.660156 5.722656 -11.203125 6.359375 -11.609375 C 6.992188 -12.023438 7.679688 -12.234375 8.421875 -12.234375 Z M 8.421875 -12.234375" transform="translate(153.786 341.035)"/></g></g></g><g fill="#008D36"><g><g><path d="M 6.6875 -9.90625 C 6 -9.90625 5.457031 -9.679688 5.0625 -9.234375 C 4.664062 -8.796875 4.441406 -8.175781 4.390625 -7.375 L 8.984375 -7.375 C 8.960938 -8.175781 8.75 -8.796875 8.34375 -9.234375 C 7.9375 -9.679688 7.382812 -9.90625 6.6875 -9.90625 Z M 7.15625 0.21875 C 5.21875 0.21875 3.703125 -0.3125 2.609375 -1.375 C 1.523438 -2.445312 0.984375 -3.960938 0.984375 -5.921875 C 0.984375 -7.929688 1.484375 -9.484375 2.484375 -10.578125 C 3.492188 -11.679688 4.890625 -12.234375 6.671875 -12.234375 C 8.367188 -12.234375 9.6875 -11.75 10.625 -10.78125 C 11.570312 -9.8125 12.046875 -8.476562 12.046875 -6.78125 L 12.046875 -5.1875 L 4.3125 -5.1875 C 4.34375 -4.257812 4.613281 -3.53125 5.125 -3 C 5.644531 -2.476562 6.375 -2.21875 7.3125 -2.21875 C 8.03125 -2.21875 8.710938 -2.289062 9.359375 -2.4375 C 10.003906 -2.59375 10.675781 -2.835938 11.375 -3.171875 L 11.375 -0.640625 C 10.800781 -0.347656 10.1875 -0.132812 9.53125 0 C 8.882812 0.144531 8.09375 0.21875 7.15625 0.21875 Z M 7.15625 0.21875" transform="translate(163.775 341.035)"/></g></g></g><g fill="#008D36"><g><g><path d="M 9.34375 0 L 8.71875 -1.640625 L 8.625 -1.640625 C 8.070312 -0.941406 7.503906 -0.457031 6.921875 -0.1875 C 6.335938 0.0820312 5.578125 0.21875 4.640625 0.21875 C 3.484375 0.21875 2.570312 -0.109375 1.90625 -0.765625 C 1.25 -1.429688 0.921875 -2.375 0.921875 -3.59375 C 0.921875 -4.863281 1.363281 -5.800781 2.25 -6.40625 C 3.144531 -7.007812 4.492188 -7.34375 6.296875 -7.40625 L 8.375 -7.484375 L 8.375 -8 C 8.375 -9.21875 7.753906 -9.828125 6.515625 -9.828125 C 5.554688 -9.828125 4.425781 -9.535156 3.125 -8.953125 L 2.046875 -11.171875 C 3.421875 -11.890625 4.953125 -12.25 6.640625 -12.25 C 8.253906 -12.25 9.488281 -11.898438 10.34375 -11.203125 C 11.207031 -10.503906 11.640625 -9.4375 11.640625 -8 L 11.640625 0 Z M 8.375 -5.5625 L 7.109375 -5.515625 C 6.160156 -5.492188 5.453125 -5.320312 4.984375 -5 C 4.515625 -4.6875 4.28125 -4.207031 4.28125 -3.5625 C 4.28125 -2.644531 4.8125 -2.1875 5.875 -2.1875 C 6.632812 -2.1875 7.238281 -2.398438 7.6875 -2.828125 C 8.144531 -3.265625 8.375 -3.847656 8.375 -4.578125 Z M 8.375 -5.5625" transform="translate(176.77 341.035)"/></g></g></g><g fill="#008D36"><g><g><path d="M 6.78125 -2.390625 C 7.351562 -2.390625 8.039062 -2.515625 8.84375 -2.765625 L 8.84375 -0.328125 C 8.019531 0.0351562 7.015625 0.21875 5.828125 0.21875 C 4.523438 0.21875 3.570312 -0.109375 2.96875 -0.765625 C 2.375 -1.429688 2.078125 -2.429688 2.078125 -3.765625 L 2.078125 -9.546875 L 0.5 -9.546875 L 0.5 -10.9375 L 2.3125 -12.03125 L 3.25 -14.5625 L 5.34375 -14.5625 L 5.34375 -12.015625 L 8.71875 -12.015625 L 8.71875 -9.546875 L 5.34375 -9.546875 L 5.34375 -3.765625 C 5.34375 -3.296875 5.472656 -2.945312 5.734375 -2.71875 C 6.003906 -2.5 6.351562 -2.390625 6.78125 -2.390625 Z M 6.78125 -2.390625" transform="translate(190.056 341.035)"/></g></g></g><g fill="#008D36"><g><g><path d="M 6.6875 -9.90625 C 6 -9.90625 5.457031 -9.679688 5.0625 -9.234375 C 4.664062 -8.796875 4.441406 -8.175781 4.390625 -7.375 L 8.984375 -7.375 C 8.960938 -8.175781 8.75 -8.796875 8.34375 -9.234375 C 7.9375 -9.679688 7.382812 -9.90625 6.6875 -9.90625 Z M 7.15625 0.21875 C 5.21875 0.21875 3.703125 -0.3125 2.609375 -1.375 C 1.523438 -2.445312 0.984375 -3.960938 0.984375 -5.921875 C 0.984375 -7.929688 1.484375 -9.484375 2.484375 -10.578125 C 3.492188 -11.679688 4.890625 -12.234375 6.671875 -12.234375 C 8.367188 -12.234375 9.6875 -11.75 10.625 -10.78125 C 11.570312 -9.8125 12.046875 -8.476562 12.046875 -6.78125 L 12.046875 -5.1875 L 4.3125 -5.1875 C 4.34375 -4.257812 4.613281 -3.53125 5.125 -3 C 5.644531 -2.476562 6.375 -2.21875 7.3125 -2.21875 C 8.03125 -2.21875 8.710938 -2.289062 9.359375 -2.4375 C 10.003906 -2.59375 10.675781 -2.835938 11.375 -3.171875 L 11.375 -0.640625 C 10.800781 -0.347656 10.1875 -0.132812 9.53125 0 C 8.882812 0.144531 8.09375 0.21875 7.15625 0.21875 Z M 7.15625 0.21875" transform="translate(199.604 341.035)"/></g></g></g><g fill="#008D36"><g><g><path d="M 5.515625 0.21875 C 4.109375 0.21875 3 -0.328125 2.1875 -1.421875 C 1.382812 -2.523438 0.984375 -4.046875 0.984375 -5.984375 C 0.984375 -7.953125 1.394531 -9.484375 2.21875 -10.578125 C 3.039062 -11.679688 4.171875 -12.234375 5.609375 -12.234375 C 7.117188 -12.234375 8.269531 -11.644531 9.0625 -10.46875 L 9.171875 -10.46875 C 9.003906 -11.363281 8.921875 -12.164062 8.921875 -12.875 L 8.921875 -16.71875 L 12.21875 -16.71875 L 12.21875 0 L 9.703125 0 L 9.0625 -1.5625 L 8.921875 -1.5625 C 8.179688 -0.375 7.046875 0.21875 5.515625 0.21875 Z M 6.671875 -2.390625 C 7.503906 -2.390625 8.113281 -2.632812 8.5 -3.125 C 8.894531 -3.613281 9.113281 -4.441406 9.15625 -5.609375 L 9.15625 -5.96875 C 9.15625 -7.25 8.953125 -8.171875 8.546875 -8.734375 C 8.148438 -9.296875 7.507812 -9.578125 6.625 -9.578125 C 5.882812 -9.578125 5.3125 -9.265625 4.90625 -8.640625 C 4.507812 -8.023438 4.3125 -7.125 4.3125 -5.9375 C 4.3125 -4.757812 4.515625 -3.875 4.921875 -3.28125 C 5.328125 -2.6875 5.910156 -2.390625 6.671875 -2.390625 Z M 6.671875 -2.390625" transform="translate(212.6 341.035)"/></g></g></g></svg>