<svg xmlns="http://www.w3.org/2000/svg" xmlns:xlink="http://www.w3.org/1999/xlink" width="375" viewBox="0 0 375 375" height="375" version="1.0"><defs><clipPath id="a"><path d="M 0.0703125 9.808594 L 344.59375 9.808594 L 344.59375 354.050781 L 0.0703125 354.050781 Z M 0.0703125 9.808594"/></clipPath><clipPath id="b"><path d="M 324.632812 101.433594 C 316.410156 112.308594 308.054688 123.039062 299.613281 133.621094 C 305.339844 148.636719 308.480469 164.925781 308.480469 181.929688 C 308.480469 256.941406 247.402344 317.96875 172.332031 317.96875 C 97.261719 317.96875 36.183594 256.941406 36.183594 181.929688 C 36.183594 106.921875 97.261719 45.894531 172.332031 45.894531 C 212.707031 45.894531 249.03125 63.546875 273.988281 91.53125 C 282.53125 82.625 290.972656 74.007812 299.339844 65.652344 C 297.648438 63.808594 295.917969 62 294.140625 60.222656 C 278.324219 44.421875 259.90625 32.015625 239.390625 23.34375 C 218.140625 14.363281 195.578125 9.808594 172.332031 9.808594 C 149.085938 9.808594 126.523438 14.363281 105.273438 23.34375 C 84.761719 32.015625 66.339844 44.421875 50.523438 60.222656 C 34.710938 76.023438 22.292969 94.429688 13.617188 114.929688 C 4.628906 136.160156 0.0703125 158.703125 0.0703125 181.929688 C 0.0703125 205.160156 4.628906 227.703125 13.617188 248.933594 C 22.292969 269.429688 34.710938 287.835938 50.523438 303.636719 C 66.339844 319.441406 84.761719 331.847656 105.273438 340.515625 C 126.523438 349.5 149.085938 354.050781 172.332031 354.050781 C 195.578125 354.050781 218.140625 349.5 239.390625 340.515625 C 259.90625 331.847656 278.324219 319.441406 294.140625 303.636719 C 309.953125 287.835938 322.371094 269.429688 331.046875 248.933594 C 340.035156 227.703125 344.59375 205.160156 344.59375 181.929688 C 344.59375 158.703125 340.035156 136.160156 331.046875 114.929688 C 329.097656 110.320312 326.957031 105.824219 324.632812 101.433594 Z M 324.632812 101.433594"/></clipPath><clipPath id="c"><path d="M 324.632812 101.433594 C 316.410156 112.308594 308.054688 123.039062 299.613281 133.621094 C 305.339844 148.636719 308.480469 164.925781 308.480469 181.929688 C 308.480469 256.941406 247.402344 317.96875 172.332031 317.96875 C 97.261719 317.96875 36.183594 256.941406 36.183594 181.929688 C 36.183594 106.921875 97.261719 45.894531 172.332031 45.894531 C 212.707031 45.894531 249.03125 63.546875 273.988281 91.53125 C 282.53125 82.625 290.972656 74.007812 299.339844 65.652344 C 297.648438 63.808594 295.917969 62 294.140625 60.222656 C 278.324219 44.421875 259.90625 32.015625 239.390625 23.34375 C 218.140625 14.363281 195.578125 9.808594 172.332031 9.808594 C 149.085938 9.808594 126.523438 14.363281 105.273438 23.34375 C 84.761719 32.015625 66.339844 44.421875 50.523438 60.222656 C 34.710938 76.023438 22.292969 94.429688 13.617188 114.929688 C 4.628906 136.160156 0.0703125 158.703125 0.0703125 181.929688 C 0.0703125 205.160156 4.628906 227.703125 13.617188 248.933594 C 22.292969 269.429688 34.710938 287.835938 50.523438 303.636719 C 66.339844 319.441406 84.761719 331.847656 105.273438 340.515625 C 126.523438 349.5 149.085938 354.050781 172.332031 354.050781 C 195.578125 354.050781 218.140625 349.5 239.390625 340.515625 C 259.90625 331.847656 278.324219 319.441406 294.140625 303.636719 C 309.953125 287.835938 322.371094 269.429688 331.046875 248.933594 C 340.035156 227.703125 344.59375 205.160156 344.59375 181.929688 C 344.59375 158.703125 340.035156 136.160156 331.046875 114.929688 C 329.097656 110.320312 326.957031 105.824219 324.632812 101.433594"/></clipPath><clipPath id="e"><path d="M 74 9.808594 L 375 9.808594 L 375 265 L 74 265 Z M 74 9.808594"/></clipPath><linearGradient x1="0" gradientTransform="matrix(344.52187 0 0 344.24062 .071 181.931)" xmlns:xlink="http://www.w3.org/1999/xlink" y1="0" x2="1" gradientUnits="userSpaceOnUse" y2="0" xlink:type="simple" xlink:actuate="onLoad" id="d" xlink:show="other"><stop stop-color="#3AAA35" offset="0"/><stop stop-color="#3AAA35" offset=".016"/><stop stop-color="#39A935" offset=".023"/><stop stop-color="#39A935" offset=".031"/><stop stop-color="#38A835" offset=".039"/><stop stop-color="#38A835" offset=".047"/><stop stop-color="#38A735" offset=".055"/><stop stop-color="#37A735" offset=".063"/><stop stop-color="#37A635" offset=".066"/><stop stop-color="#36A535" offset=".07"/><stop stop-color="#36A535" offset=".078"/><stop stop-color="#36A435" offset=".086"/><stop stop-color="#35A435" offset=".094"/><stop stop-color="#35A335" offset=".102"/><stop stop-color="#34A335" offset=".109"/><stop stop-color="#33A235" offset=".125"/><stop stop-color="#33A135" offset=".133"/><stop stop-color="#33A135" offset=".141"/><stop stop-color="#32A035" offset=".145"/><stop stop-color="#32A035" offset=".148"/><stop stop-color="#31A035" offset=".156"/><stop stop-color="#319F35" offset=".164"/><stop stop-color="#309F35" offset=".172"/><stop stop-color="#309F35" offset=".18"/><stop stop-color="#2F9E35" offset=".188"/><stop stop-color="#2F9E35" offset=".191"/><stop stop-color="#2F9D35" offset=".195"/><stop stop-color="#2E9D35" offset=".203"/><stop stop-color="#2E9C35" offset=".219"/><stop stop-color="#2D9B35" offset=".227"/><stop stop-color="#2D9B35" offset=".23"/><stop stop-color="#2D9A35" offset=".234"/><stop stop-color="#2C9A35" offset=".242"/><stop stop-color="#2C9935" offset=".25"/><stop stop-color="#2C9935" offset=".258"/><stop stop-color="#2B9934" offset=".266"/><stop stop-color="#2B9834" offset=".27"/><stop stop-color="#2A9834" offset=".273"/><stop stop-color="#2A9734" offset=".281"/><stop stop-color="#2A9734" offset=".289"/><stop stop-color="#299634" offset=".297"/><stop stop-color="#299534" offset=".313"/><stop stop-color="#289434" offset=".316"/><stop stop-color="#289434" offset=".32"/><stop stop-color="#289434" offset=".328"/><stop stop-color="#279334" offset=".336"/><stop stop-color="#279334" offset=".344"/><stop stop-color="#269334" offset=".352"/><stop stop-color="#259234" offset=".355"/><stop stop-color="#259234" offset=".359"/><stop stop-color="#259234" offset=".367"/><stop stop-color="#249134" offset=".375"/><stop stop-color="#249134" offset=".383"/><stop stop-color="#249034" offset=".391"/><stop stop-color="#239034" offset=".395"/><stop stop-color="#238F34" offset=".398"/><stop stop-color="#238F34" offset=".406"/><stop stop-color="#228F34" offset=".422"/><stop stop-color="#218E34" offset=".43"/><stop stop-color="#218D34" offset=".438"/><stop stop-color="#208C34" offset=".441"/><stop stop-color="#208C34" offset=".445"/><stop stop-color="#208B34" offset=".453"/><stop stop-color="#1F8A34" offset=".469"/><stop stop-color="#1F8A34" offset=".477"/><stop stop-color="#1F8934" offset=".48"/><stop stop-color="#1E8934" offset=".484"/><stop stop-color="#1E8934" offset=".492"/><stop stop-color="#1E8834" offset=".5"/><stop stop-color="#1D8734" offset=".516"/><stop stop-color="#1C8734" offset=".523"/><stop stop-color="#1C8634" offset=".531"/><stop stop-color="#1B8534" offset=".547"/><stop stop-color="#1B8534" offset=".555"/><stop stop-color="#1A8534" offset=".563"/><stop stop-color="#198434" offset=".566"/><stop stop-color="#198334" offset=".57"/><stop stop-color="#198334" offset=".578"/><stop stop-color="#188334" offset=".586"/><stop stop-color="#188234" offset=".594"/><stop stop-color="#178234" offset=".602"/><stop stop-color="#178134" offset=".609"/><stop stop-color="#168034" offset=".625"/><stop stop-color="#168034" offset=".633"/><stop stop-color="#157F34" offset=".641"/><stop stop-color="#157E34" offset=".645"/><stop stop-color="#157E34" offset=".648"/><stop stop-color="#147E34" offset=".656"/><stop stop-color="#147D34" offset=".672"/><stop stop-color="#137C34" offset=".68"/><stop stop-color="#137C34" offset=".688"/><stop stop-color="#127B34" offset=".691"/><stop stop-color="#127B34" offset=".695"/><stop stop-color="#127A34" offset=".703"/><stop stop-color="#117A34" offset=".719"/><stop stop-color="#117934" offset=".727"/><stop stop-color="#107934" offset=".73"/><stop stop-color="#107834" offset=".734"/><stop stop-color="#107834" offset=".742"/><stop stop-color="#0F7834" offset=".75"/><stop stop-color="#0F7734" offset=".758"/><stop stop-color="#0E7733" offset=".766"/><stop stop-color="#0E7633" offset=".77"/><stop stop-color="#0D7633" offset=".773"/><stop stop-color="#0D7633" offset=".781"/><stop stop-color="#0C7533" offset=".789"/><stop stop-color="#0C7533" offset=".797"/><stop stop-color="#0C7433" offset=".813"/><stop stop-color="#0B7333" offset=".816"/><stop stop-color="#0B7233" offset=".82"/><stop stop-color="#0A7233" offset=".828"/><stop stop-color="#0A7133" offset=".836"/><stop stop-color="#097133" offset=".844"/><stop stop-color="#097033" offset=".852"/><stop stop-color="#087033" offset=".855"/><stop stop-color="#087033" offset=".859"/><stop stop-color="#086F33" offset=".867"/><stop stop-color="#076F33" offset=".875"/><stop stop-color="#076E33" offset=".883"/><stop stop-color="#076E33" offset=".891"/><stop stop-color="#066D33" offset=".895"/><stop stop-color="#066D33" offset=".898"/><stop stop-color="#066D33" offset=".906"/><stop stop-color="#066C33" offset=".922"/><stop stop-color="#056C33" offset=".93"/><stop stop-color="#046B33" offset=".938"/><stop stop-color="#046B33" offset=".941"/><stop stop-color="#036A33" offset=".945"/><stop stop-color="#036A33" offset=".953"/><stop stop-color="#036933" offset=".961"/><stop stop-color="#026933" offset=".969"/><stop stop-color="#026833" offset=".977"/><stop stop-color="#026833" offset=".98"/><stop stop-color="#016733" offset=".984"/><stop stop-color="#016733" offset=".992"/><stop stop-color="#063" offset="1"/></linearGradient></defs><g clip-path="url(#a)"><g clip-path="url(#b)"><g clip-path="url(#c)"><path fill="url(#d)" d="M 0.0703125 9.808594 L 0.0703125 354.050781 L 344.59375 354.050781 L 344.59375 9.808594 Z M 0.0703125 9.808594"/></g></g></g><g clip-path="url(#e)"><path fill="#008D36" d="M 360.269531 22.695312 C 292.324219 83.878906 230.433594 152.628906 171.8125 222.691406 C 141.363281 189.878906 109.738281 157.191406 74.464844 129.550781 C 101.648438 177.878906 136.980469 221.589844 171.667969 264.707031 C 244.445312 185.0625 317.648438 101.472656 374.929688 9.808594 C 369.96875 14.023438 365.085938 18.316406 360.269531 22.695312 C 355.445312 27.042969 365.085938 18.339844 360.269531 22.695312"/></g></svg>